<svg width="16px" height="16px" viewBox="0 0 16 16" version="1.1" xmlns="http://www.w3.org/2000/svg" xmlns:xlink="http://www.w3.org/1999/xlink">
  <path d="M14.53122,11.3271475 L8.44800983,11.3271475 L8.44800983,13.5671502 L13.3760156,13.5671502 L13.3760155,13.5671502 C13.6252065,13.5671501 13.8272161,13.7691598 13.8272161,14.0183507 C13.8272161,14.2675416 13.6252065,14.4695512 13.3760155,14.4695512 L2.62400303,14.4695512 L2.62400301,14.4695512 C2.3748121,14.4695512 2.17280249,14.2675416 2.17280249,14.0183507 C2.1728025,13.7691598 2.3748121,13.5671502 2.62400301,13.5671502 L7.55200875,13.5671502 L7.55200875,11.3271475 L1.46879854,11.3271475 L1.46879852,11.3271475 C0.744639869,11.324326 0.159286063,10.7361094 0.159993765,10.011946 L0.159993765,1.38473286 L0.159993765,1.38471139 C0.158418202,0.661705865 0.743250758,0.074312994 1.46625629,0.0727317793 C1.46711069,0.0727317793 1.46796509,0.0727317793 1.46881949,0.0727317793 L14.5312409,0.0727317793 L14.5312409,0.0727317793 C15.2545886,0.0744960158 15.8400424,0.661382464 15.8400424,1.38473331 L15.8400424,10.0119465 L15.8400424,10.0119678 C15.839689,10.7356968 15.2549386,11.3232881 14.531219,11.3271475 L14.53122,11.3271475 Z M4.4224114,6.37034491 L4.4224114,6.3703449 C4.4224114,6.12292117 4.2218346,5.92234438 3.97441087,5.92234438 C3.72698715,5.92234438 3.52641035,6.12292117 3.52641035,6.3703449 C3.52641035,6.3703449 3.52641035,6.37034491 3.52641035,6.37034491 L3.52641035,8.89834786 L3.52641035,8.8983478 C3.52641035,9.14577152 3.72698715,9.34634832 3.97441087,9.34634832 C4.2218346,9.34634832 4.4224114,9.14577152 4.4224114,8.8983478 C4.4224114,8.89834779 4.4224114,8.89834778 4.4224114,8.89834778 L4.4224114,6.37034484 L4.4224114,6.37034491 Z M7.10400827,2.77993448 L7.10400827,2.77993447 C7.10400827,2.53251075 6.90343147,2.33193395 6.65600775,2.33193395 C6.40858402,2.33193395 6.20800722,2.53251075 6.20800722,2.77993447 C6.20800722,2.77993447 6.20800722,2.77993448 6.20800722,2.77993449 L6.20800722,8.89834786 L6.20800722,8.8983478 C6.20800722,9.14577152 6.40858402,9.34634832 6.65600775,9.34634832 C6.90343147,9.34634832 7.10400827,9.14577152 7.10400827,8.8983478 C7.10400827,8.89834779 7.10400827,8.89834778 7.10400827,8.89834778 L7.10400827,2.77993441 L7.10400827,2.77993448 Z M9.79841765,5.10953094 L9.79841765,5.10953094 C9.79841765,4.86210721 9.59784086,4.66153042 9.35041713,4.66153042 C9.10299341,4.66153042 8.90241661,4.86210721 8.90241661,5.10953094 L8.90241661,8.89833222 L8.90241661,8.89833229 C8.90241661,9.14575602 9.10299341,9.34633281 9.35041713,9.34633281 C9.59784086,9.34633281 9.79841765,9.14575602 9.79841765,8.89833229 L9.79841765,5.10953101 L9.79841765,5.10953094 Z M12.4864208,4.03112968 L12.4864208,4.03112968 C12.4864208,3.78370596 12.285844,3.58312916 12.0384203,3.58312916 C11.7909965,3.58312916 11.5904197,3.78370596 11.5904197,4.03112968 L11.5904197,8.89833847 L11.5904197,8.89833854 C11.5904197,9.14576227 11.7909965,9.34633906 12.0384203,9.34633906 C12.285844,9.34633906 12.4864208,9.14576227 12.4864208,8.89833854 L12.4864208,4.03112975 L12.4864208,4.03112968 Z" id="形状"></path>
</svg>