<?xml version="1.0" encoding="UTF-8"?>
<svg width="20px" height="20px" viewBox="0 0 20 20" version="1.1" xmlns="http://www.w3.org/2000/svg" xmlns:xlink="http://www.w3.org/1999/xlink">
                <path d="M19.0717147,7.96361145 C19.0059803,7.70247822 18.8505165,7.51811042 18.6422387,7.35904051 C18.51572,7.26243154 18.3466231,7.22375439 18.2003049,7.16238297 L18.3606346,7.230047 L18.3606346,7.230047 C18.0965365,7.11624208 17.8473408,6.97057713 17.6185969,6.7962923 L17.7544282,6.90120718 L17.7544285,6.90120739 C17.5174048,6.71736533 17.3041369,6.50478887 17.1195285,6.26836344 L17.2244853,6.40419483 L17.2244854,6.40419499 C17.037565,6.16042527 16.8815042,5.89447673 16.7598568,5.61240449 L16.8275208,5.77273415 L16.8275207,5.77273394 C16.7000045,5.4694595 16.6119747,5.15106061 16.5655898,4.82535445 L16.5895847,5.00376417 L16.5895847,5.00376368 C16.5440503,4.66300914 16.5437119,4.31773331 16.588578,3.97689036 L16.5645831,4.15530008 C16.5857254,4.00558343 16.6268355,3.85272059 16.6238151,3.70153571 C16.6201236,3.5175047 16.5650864,3.32000725 16.4617656,3.16689377 C16.3122169,2.94519185 16.0898451,2.77139637 15.8866005,2.60078985 C15.5033121,2.27903957 15.0964035,1.98338287 14.668229,1.72430366 C14.2408933,1.46577136 13.7904002,1.25459858 13.3284568,1.06607958 C13.0778527,0.96380757 12.8289674,0.862584159 12.5566348,0.842029628 C12.1677251,0.812665247 11.9101571,1.09099709 11.6334594,1.30783229 L11.7692908,1.20287546 L11.7692909,1.20287535 C11.5315475,1.38575702 11.271465,1.53759121 10.9953286,1.65470907 L11.1556583,1.58704504 L11.1556582,1.58704506 C10.8921893,1.69571966 10.6162051,1.77113816 10.3340835,1.81155762 L10.5124932,1.78756267 L10.5124933,1.78756265 C10.2173342,1.82674292 9.91828908,1.82674312 9.62312996,1.78756268 L9.80153967,1.81155763 L9.80153942,1.8115576 C9.51943223,1.7711439 9.24346034,1.6957254 8.98000787,1.58704504 L9.14033753,1.65470907 L9.14033775,1.65470916 C8.86421988,1.5375841 8.6041517,1.38575053 8.36641861,1.20287544 L8.50224999,1.30783226 C8.41961017,1.24306276 8.34250754,1.17242031 8.26171448,1.10559536 C8.19069453,1.0468666 8.12529588,0.990403013 8.04177461,0.954620404 C7.87229996,0.882090274 7.79784041,0.865142911 7.61066402,0.842951747 C7.36144367,0.813377648 7.0671707,0.962464928 6.83997497,1.05290734 C6.37656352,1.23739973 5.92703465,1.45129763 5.49806443,1.70601386 C5.067583,1.96156897 4.66264618,2.25928174 4.27679792,2.57775875 C4.10858179,2.71661051 3.91624548,2.86066371 3.77902954,3.03106051 C3.62037783,3.22805381 3.54080093,3.41917456 3.51500137,3.67133099 C3.49859925,3.83145093 3.54872852,3.99647789 3.57117135,4.15525584 L3.54721834,3.97684613 L3.54721847,3.97684711 C3.59211934,4.31763043 3.59179489,4.66285281 3.54625349,5.00355183 L3.57024845,4.82514211 L3.57024854,4.82514148 C3.5237647,5.15090933 3.43565059,5.46936167 3.30806671,5.77268751 L3.37573074,5.61235784 L3.37573067,5.61235801 C3.25405348,5.89442819 3.09803991,6.16040963 2.91122745,6.40427393 L3.01614233,6.26844254 L3.01614245,6.26844239 C2.83166239,6.50487194 2.61850673,6.71744902 2.38157756,6.9012884 L2.51740895,6.79637352 L2.51740902,6.79637347 C2.28863833,6.97066488 2.03941387,7.11633086 1.775287,7.23012817 L1.93561667,7.16246414 C1.81467719,7.2131806 1.68459314,7.25139636 1.56835116,7.31171919 C1.40177104,7.39821826 1.27739259,7.53522428 1.17595843,7.69014299 C1.03106594,7.91146659 1.0097558,8.22780529 0.9702404,8.48357012 C0.888856421,9.00931955 0.840153263,9.53846562 0.838960509,10.0707163 C0.837846208,10.5897116 0.889317803,11.104679 0.964071162,11.6177178 L0.964071145,11.6177177 C0.981913186,11.7382357 1.0020665,11.8583992 1.02451981,11.9781447 C1.05468133,12.1407815 1.09377791,12.2701519 1.16148388,12.4247354 C1.30264275,12.7471992 1.64062632,12.8550503 1.9354462,12.9786736 L1.77511654,12.9110515 L1.77511643,12.9110515 C2.03925357,13.0248325 2.28847804,13.1704987 2.51723845,13.3448062 L2.38140706,13.2398493 L2.38140721,13.2398495 C2.61833638,13.4237016 2.83149327,13.6362947 3.01597209,13.8727366 L2.91105721,13.7369052 L2.91105724,13.7369052 C3.09786127,13.9807757 3.25387401,14.2467551 3.37556046,14.5288212 L3.30789643,14.3684915 L3.30789653,14.3684917 C3.43547547,14.6718505 3.52358855,14.9903295 3.57007835,15.3161241 L3.5460834,15.1377144 L3.54608356,15.1377156 C3.5916249,15.4784702 3.59194934,15.8237481 3.54704829,16.1645869 L3.5710013,15.9861772 C3.54985894,16.1358097 3.50862302,16.2886312 3.51172706,16.4397729 C3.51558639,16.6238878 3.57058166,16.8210074 3.67390246,16.9742463 C3.82340918,17.1959482 4.04574067,17.3697437 4.24894207,17.5403091 C4.6321894,17.8620162 5.03901164,18.1576749 5.46718821,18.4167521 C5.89448274,18.6752844 6.34497384,18.8864572 6.80691931,19.0750173 C7.05861518,19.1777507 7.31295104,19.2843026 7.58738292,19.2994024 C7.76478599,19.3091346 7.98191397,19.2392054 8.12655644,19.1399537 C8.25974496,19.0485464 8.37514764,18.9328088 8.50216959,18.8332642 L8.3663382,18.938221 L8.36633813,18.9382211 C8.60410412,18.7553295 8.86421754,18.6034949 9.14038475,18.4863873 L8.98005508,18.5540514 L8.98005519,18.5540513 C9.24350355,18.4453496 9.51947543,18.3699167 9.80158674,18.3294976 L9.62317703,18.3534506 L9.62317679,18.3534507 C9.9182948,18.3142702 10.2172967,18.3142702 10.5124127,18.3534504 L10.334003,18.3294974 L10.334003,18.3294974 C10.6161287,18.3699109 10.892117,18.445344 11.1555777,18.5540511 L10.995248,18.4863871 L10.995248,18.4863871 C11.2713844,18.6035022 11.531469,18.7553375 11.7692103,18.9382208 L11.6333789,18.8332639 C11.7160607,18.8980754 11.7932892,18.968592 11.8739145,19.0356686 C11.944473,19.0942715 12.0107105,19.1510707 12.0940209,19.1869372 C12.2631178,19.259719 12.3384156,19.2765405 12.5252157,19.2987317 C12.7737638,19.3282638 13.0687502,19.1785893 13.2954442,19.0883155 C13.7588557,18.903907 14.2083846,18.6900075 14.6373548,18.4353344 C15.0679205,18.1797382 15.4728984,17.8820254 15.8587467,17.5634641 C16.0270887,17.4245285 16.2192148,17.2803906 16.3566837,17.1099938 C16.5154193,16.913336 16.5950398,16.7217954 16.6206276,16.4698919 C16.6369038,16.3098139 16.5868585,16.1447861 16.5644576,15.9860513 L16.5884525,16.164503 L16.5884524,16.164502 C16.5436077,15.8235727 16.5439463,15.4782167 16.5894594,15.1373779 L16.5654645,15.3158295 L16.5654645,15.3158295 C16.6118476,14.9900822 16.699878,14.6716422 16.8273955,14.3683246 L16.7597314,14.5286543 L16.7597313,14.5286545 C16.8813606,14.246572 17.0374221,13.9806234 17.22436,13.736864 L17.1194032,13.8726954 L17.1194028,13.8726959 C17.3040115,13.6362561 17.517277,13.4236667 17.7543028,13.2398088 L17.6184714,13.3447656 L17.6184712,13.3447657 C17.8472275,13.170499 18.0964211,13.0248351 18.3605089,12.911011 L18.2001793,12.9786331 C18.429137,12.8825277 18.6773499,12.8174224 18.8384348,12.6120811 C18.947167,12.473439 19.0274997,12.3530039 19.0716301,12.1774875 C19.0978903,12.0729501 19.1140826,11.9647624 19.1327501,11.8586322 C19.2110272,11.4145581 19.2632959,10.9643178 19.2858646,10.5138678 C19.3287368,9.66062138 19.2448384,8.79932132 19.0717146,7.96360083 C18.9974227,7.60522988 18.5813707,7.40257334 18.2460298,7.49481892 C17.8765828,7.59646177 17.7031245,7.96255223 17.7772479,8.32046262 L17.7772479,8.32046263 C17.8239275,8.54565781 17.8628791,8.77238681 17.8940343,9.00024872 L17.8700813,8.821839 L17.8700816,8.82184089 C17.9799462,9.65079486 17.979946,10.4906234 17.8700811,11.3195753 L17.8940341,11.1411656 C17.8609782,11.3826674 17.8389968,11.6484988 17.7597548,11.8797635 L17.8273769,11.7194758 L17.8273769,11.7194758 C17.8153142,11.7470732 17.8009299,11.7735965 17.7843789,11.7987597 L17.8892938,11.6629283 L17.8892938,11.6629283 C17.8710854,11.6863288 17.8508583,11.7080862 17.8288452,11.7279494 L17.9646766,11.6230346 C17.9404719,11.6414502 17.9168125,11.6564681 17.8897974,11.670437 L18.050127,11.602815 C17.8190721,11.697536 17.586841,11.7858391 17.3673617,11.9060647 C17.1394936,12.0309054 16.9320135,12.1874173 16.7300705,12.3500545 C16.3691397,12.6407212 16.066184,13.0136059 15.8265696,13.4085153 C15.5611145,13.8460449 15.3751121,14.3465396 15.2877744,14.8505585 C15.2399944,15.1262898 15.2107978,15.4059646 15.2117625,15.6858924 C15.2127693,15.9796616 15.2621853,16.2672236 15.3040926,16.5570924 L15.2801396,16.3786408 L15.2801396,16.3786407 C15.2820775,16.409079 15.2814741,16.439626 15.2783358,16.469964 L15.3022888,16.2915123 L15.3022888,16.2915123 C15.2969032,16.3211279 15.2890595,16.3502435 15.2788393,16.3785568 L15.3464614,16.2182272 L15.3464614,16.2182271 C15.334108,16.2455967 15.3194278,16.2718554 15.3025826,16.2967139 L15.4075394,16.1608825 C15.3133217,16.2775431 15.1869704,16.3755362 15.0744622,16.4741597 L15.0744623,16.4741597 C14.947683,16.5847606 14.8176879,16.6916199 14.6846417,16.7945982 L14.8204731,16.6896414 C14.2335618,17.142022 13.5922016,17.5188914 12.9096891,17.8077117 L13.0699768,17.7400476 C12.8612384,17.8273438 12.6338741,17.9389706 12.4101593,17.9786546 L12.588569,17.9547016 C12.5558907,17.9572185 12.5264005,17.9565893 12.493806,17.9527299 L12.6722577,17.976683 L12.6722576,17.976683 C12.65142,17.9731645 12.6309672,17.967658 12.6111796,17.9602389 L12.7715093,18.0279029 L12.7715093,18.0279029 C12.7419529,18.0152779 12.7137226,17.9997506 12.6872335,17.981549 L12.8230648,18.0865058 C12.6178495,17.9158987 12.4153194,17.7438227 12.190556,17.5985531 C11.9670921,17.4541222 11.7261782,17.347655 11.4806917,17.2465992 C11.0379602,17.064372 10.5448056,16.9832002 10.067635,16.9806424 C9.58962336,16.9780835 9.09865235,17.0691552 8.65474478,17.2465992 C8.40791563,17.3452636 8.16964385,17.4564705 7.94483932,17.5985531 C7.71906845,17.7412222 7.5177977,17.9156896 7.31308509,18.0858356 L7.44891647,17.9808787 C7.42248857,17.9990427 7.39710927,18.0132635 7.36778683,18.0262677 L7.5281165,17.9586037 C7.49829073,17.9686295 7.47047828,17.9752156 7.4393101,17.9796202 L7.61771982,17.9556253 L7.61771982,17.9556253 C7.59604391,17.957681 7.57421441,17.9575124 7.55257283,17.9551219 L7.73098255,17.9791168 C7.50558999,17.9424112 7.27487015,17.8276383 7.06512428,17.7399219 L7.22545395,17.807544 C6.54298263,17.5186394 5.90170674,17.1417679 5.31483856,16.6894736 L5.45066995,16.7944305 L5.4506704,16.7944308 C5.32737097,16.6985534 5.20647714,16.5996207 5.08810302,16.4977235 C4.96624078,16.3927247 4.82906698,16.2864684 4.72792684,16.1609145 L4.83288367,16.2967459 L4.83288366,16.2967459 C4.81603849,16.2718874 4.80135835,16.2456287 4.78900487,16.2182591 L4.8566689,16.3785888 L4.85666889,16.3785888 C4.84642637,16.3502761 4.83855479,16.3211611 4.83313552,16.2915444 L4.85708853,16.4699961 L4.85708852,16.469996 C4.85393616,16.4396591 4.85331876,16.4091123 4.85524276,16.3786728 L4.83124781,16.5571244 C4.87147708,16.2791273 4.91678217,16.004276 4.92324234,15.7229234 C4.9299542,15.430579 4.89471684,15.1388227 4.8476499,14.8508845 C4.76505202,14.3454387 4.56940195,13.8478389 4.30851956,13.4085473 C4.07234497,13.0108272 3.76326419,12.6437715 3.4055224,12.3500865 C3.21314354,12.1921481 3.01216537,12.0453687 2.79604363,11.9216591 C2.56947705,11.7919523 2.32579369,11.7017192 2.08508958,11.6027195 L2.24541924,11.6703835 L2.24541925,11.6703835 C2.21908593,11.656793 2.19401359,11.6408875 2.17049812,11.6228552 L2.3063295,11.727812 L2.30632949,11.727812 C2.28438876,11.7079293 2.26420617,11.6861887 2.24600666,11.6628328 L2.35096348,11.7986642 L2.35096347,11.7986642 C2.33445097,11.7735213 2.32012201,11.7470105 2.30813348,11.7194224 L2.37579751,11.8797521 C2.29663943,11.6480248 2.27432244,11.3822345 2.2411827,11.1403153 L2.26513571,11.3187669 L2.2651356,11.3187661 C2.155229,10.49032 2.1552292,9.65098495 2.26513582,8.82253266 L2.24118281,9.00094238 C2.27432275,8.75906425 2.29655565,8.49314861 2.37579762,8.26142129 L2.30813359,8.42175096 L2.30813358,8.42175098 C2.32013891,8.39418443 2.33446731,8.36768888 2.35096357,8.34255096 L2.24600675,8.47838234 C2.26475803,8.45442933 2.28380287,8.4337905 2.30632958,8.41331924 L2.1704982,8.51827606 L2.1704982,8.51827606 C2.19400628,8.50022095 2.21907944,8.48430094 2.24541913,8.4707058 L2.08508947,8.53836983 C2.31614444,8.44331298 2.54858521,8.35530373 2.76818994,8.23503576 C2.99605801,8.1101951 3.20353809,7.95368314 3.40548117,7.79104595 C3.76624333,7.50042251 4.06907571,7.12745141 4.30847833,6.73254205 C4.57384912,6.29480269 4.76014551,5.7944745 4.84760867,5.29033025 C4.8954308,5.01468323 4.92466935,4.73504948 4.92366249,4.4551649 C4.92261377,4.16152109 4.87298798,3.87408456 4.83116463,3.58434318 L4.85515959,3.7627529 L4.85515958,3.76275274 C4.85323558,3.7322713 4.85385298,3.70168253 4.85700536,3.67130368 L4.83305235,3.8497134 C4.83867354,3.81934216 4.84614049,3.7916138 4.85658592,3.76254302 L4.78892189,3.92287269 C4.80167444,3.89480877 4.81560166,3.86993279 4.83280068,3.84434377 L4.72784386,3.98017515 C4.82185191,3.86343068 4.94828746,3.76552145 5.06079356,3.66702541 L5.0607932,3.66702573 C5.18757377,3.55646118 5.31755933,3.44962716 5.45058501,3.34665918 L5.31475362,3.451616 C5.90166497,2.99927854 6.54294087,2.62240708 7.225369,2.33354569 L7.06503934,2.40120973 C7.27356801,2.3139974 7.50160468,2.20136404 7.72527631,2.16289682 L7.5468666,2.18684983 L7.54686662,2.18684983 C7.57845957,2.18440132 7.61021783,2.18510392 7.64167159,2.18894727 L7.46326188,2.16495231 L7.46326188,2.16495231 C7.48406725,2.1684331 7.50449184,2.17389743 7.52425602,2.18127054 L7.36392635,2.11360651 C7.39438148,2.1266527 7.4206416,2.14104127 7.44803442,2.15962464 L7.31220303,2.05470977 C7.51779585,2.22481358 7.71990732,2.39726748 7.94467073,2.54249387 C8.16813469,2.68692477 8.40904853,2.79339198 8.65453506,2.89444782 C9.09722544,3.07667504 9.59037794,3.15788796 10.0675075,3.16040459 C10.5455602,3.16296349 11.0366587,3.0718918 11.4805642,2.89444782 C11.7273934,2.79578339 11.965622,2.68461765 12.1904285,2.54249387 C12.4164503,2.39965704 12.6180582,2.22514769 12.8228531,2.05462547 L12.6870217,2.15954035 L12.6870217,2.15954036 C12.7134136,2.14138358 12.741563,2.12592464 12.7710458,2.11339619 L12.6107162,2.18106022 L12.6107162,2.18106022 C12.6304802,2.17368713 12.6509047,2.16822281 12.6717101,2.16474203 L12.4933004,2.18873699 L12.4933004,2.18873699 C12.5247708,2.18491376 12.5565453,2.18425327 12.5881475,2.18676538 L12.4097378,2.16281237 C12.6334115,2.20174118 12.8611953,2.31391316 13.0698082,2.40116845 L12.9095205,2.33350442 C13.5920329,2.62236581 14.233352,2.99928045 14.8203045,3.45161791 L14.6844731,3.34666108 L14.6844737,3.34666152 C14.8077961,3.44253566 14.9286998,3.54148032 15.0470739,3.64340177 C15.1690201,3.74840054 15.30611,3.85474109 15.4074167,3.98021071 L15.3024598,3.84437932 C15.3197009,3.8699264 15.3335861,3.89484412 15.3463386,3.92290824 L15.2787166,3.76257858 C15.2891199,3.79164935 15.2965869,3.81937772 15.302166,3.84974896 L15.278213,3.67133924 C15.2813592,3.70246547 15.2819465,3.73153624 15.2800168,3.7627885 L15.3039698,3.58437879 C15.2638664,3.8623759 15.2185613,4.13722722 15.2121431,4.41862096 C15.2054312,4.71092216 15.2406686,5.00263737 15.2876516,5.29061876 C15.3701656,5.7958959 15.5655233,6.29353886 15.8264468,6.73257971 C16.0628723,7.13034085 16.3720373,7.49739663 16.7299477,7.79108361 C16.9223685,7.94898013 17.1233479,8.09580141 17.3394265,8.21951103 C17.5658265,8.34913391 17.8093413,8.43970174 18.0500022,8.53836637 L17.8896726,8.47070234 C17.9167718,8.48471336 17.9403471,8.49968922 17.9645518,8.51818871 L17.8287204,8.41327383 C17.851289,8.43374501 17.8704179,8.45438393 17.889169,8.47837888 L17.7842542,8.34254749 C17.8012016,8.36838818 17.8148351,8.39351562 17.8272521,8.4218314 L17.7596301,8.26150174 C17.7671389,8.28071446 17.7729279,8.3003886 17.7771229,8.32056605 C17.8664326,8.67524635 18.2560556,8.8846982 18.6028077,8.78934795 C18.9612218,8.69068353 19.1609834,8.31813372 19.071715,7.96357884 L19.0717147,7.96361145 Z" id="路径"></path>
                <path d="M7.70538961,10.8360852 L7.70538954,10.8360849 C7.65353648,10.666959 7.61507605,10.4940145 7.59036496,10.3188517 L7.61431797,10.4972614 L7.61431788,10.4972607 C7.57710034,10.2112573 7.57749531,9.92161045 7.61549264,9.6357098 L7.59149769,9.81411952 L7.5914976,9.81412016 C7.62987908,9.54409238 7.70224143,9.27999841 7.80686476,9.02811955 L7.73920073,9.18844922 L7.73920061,9.18844951 C7.84719281,8.93466879 7.98702695,8.69565271 8.15533684,8.47716032 L8.05038002,8.6129917 L8.05038005,8.61299166 C8.21367437,8.40447532 8.40163494,8.21651557 8.61014922,8.05322249 L8.47431784,8.15817931 L8.47431767,8.15817943 C8.69281623,7.98987859 8.93183026,7.85004445 9.18560687,7.7420432 L9.0252772,7.80970723 L9.02527741,7.80970715 C9.27715626,7.70508444 9.54125023,7.63272188 9.81127801,7.59433998 L9.6328683,7.61833494 L9.63286815,7.61833496 C9.9215815,7.57978364 10.2141376,7.57978364 10.502851,7.61833492 L10.3244413,7.59433996 C10.5950139,7.63293322 10.8580346,7.70487593 11.1104419,7.80970713 L10.9501122,7.7420431 L10.9501121,7.74204303 C11.2038928,7.85003523 11.4429089,7.98986937 11.6614013,8.15817926 L11.5255699,8.05322244 L11.5255697,8.05322234 C11.7340758,8.21652776 11.9220335,8.40448545 12.0853389,8.61299151 L11.9803821,8.47716012 L11.9803821,8.47716017 C12.148683,8.69565873 12.2885171,8.93467275 12.3965184,9.18844936 L12.3288543,9.02811969 L12.3288543,9.02811969 C12.4334581,9.28000471 12.5058201,9.54409662 12.5442215,9.8141203 L12.5202685,9.63571058 L12.5202685,9.63571097 C12.5588198,9.92442432 12.5588198,10.2169805 12.5202684,10.5056938 L12.5442214,10.3272841 L12.5442215,10.3272835 C12.5058203,10.5973092 12.4334584,10.8613991 12.3288544,11.1132841 L12.3965184,10.9529544 L12.3965184,10.9529543 C12.2885262,11.206735 12.1486921,11.4457511 11.9803822,11.6642435 L12.085339,11.5284121 L12.0853391,11.528412 C11.9220448,11.7369284 11.7340842,11.9248881 11.5255699,12.0881812 L11.6614013,11.9832244 L11.6614014,11.9832243 C11.4429029,12.1515251 11.2038889,12.2913593 10.9501122,12.3993605 L11.1104419,12.3316965 L11.1104417,12.3316965 C10.8585547,12.4362952 10.5944648,12.5086569 10.3244411,12.5470637 L10.5028509,12.5231107 L10.502851,12.5231107 C10.218001,12.5609399 9.92943161,12.5614617 9.64444591,12.5246629 L9.82285563,12.5486579 L9.8228555,12.5486579 C9.64891835,12.524328 9.47715611,12.4864017 9.30914641,12.4352274 C8.95920741,12.3287184 8.57851782,12.5585998 8.48350272,12.9040093 C8.38454468,13.2638914 8.60255452,13.6232267 8.95228462,13.7296941 C10.0698101,14.0698606 11.3527463,13.8753835 12.2953311,13.1756305 C12.7427196,12.8434765 13.1209748,12.440053 13.397545,11.9532743 C13.681918,11.4528618 13.8317602,10.9042098 13.8814698,10.3337429 C13.9760231,9.24910633 13.5389964,8.1465573 12.7817726,7.37616843 C12.0219889,6.60317041 10.9152023,6.18053289 9.83379996,6.25490916 C9.26102615,6.29425741 8.71371471,6.45261551 8.20940186,6.72767573 C7.71654132,6.99644314 7.31886243,7.38053141 6.97949368,7.82150086 C6.26560356,8.74912151 6.07356045,10.0452639 6.40000885,11.1572071 L6.41099954,11.1930736 C6.51813764,11.5425521 6.87621621,11.7609807 7.23664323,11.6618555 C7.58146467,11.5668826 7.81260601,11.1858589 7.70538401,10.8360864 L7.70538961,10.8360852 Z" id="路径"></path>


</svg>